<svg width="134" height="91" viewBox="0 0 134 91" fill="none" xmlns="http://www.w3.org/2000/svg">
<path d="M16 75.8004H19.0026V69.769H24.779V67.2239H19.0026V63.7448H25.4031V61.1996H16V75.8004Z" fill="#FFE33F"/>
<path d="M27.4228 75.8004H36.5139V73.2552H30.4254V61.1996H27.4228V75.8004Z" fill="#FFE33F"/>
<path d="M51 68.5C51 63.7234 48.1153 61 44.3498 61C40.5636 61 37.6997 63.7234 37.6997 68.5C37.6997 73.2552 40.5636 76 44.3498 76C48.1153 76 51 73.2766 51 68.5ZM47.9558 68.5C47.9558 71.5941 46.5273 73.2695 44.3498 73.2695C42.1655 73.2695 40.7439 71.5941 40.7439 68.5C40.7439 65.4059 42.1655 63.7305 44.3498 63.7305C46.5273 63.7305 47.9558 65.4059 47.9558 68.5Z" fill="#FFE33F"/>
<path fill-rule="evenodd" clip-rule="evenodd" d="M125.999 40.1707L125.983 40.2995C124.316 53.596 121.364 62.8898 116.046 70.5531C110.734 78.2077 103.108 84.1673 92.2334 90.8801L92.0391 91.0001L-0.000491974 84.4906L16.7993 -5.12301e-06L91.6169 88.8733C91.8579 88.2146 92.1958 87.287 92.6139 86.1294C93.506 83.6592 94.7632 80.1418 96.2231 75.9544C99.1431 67.5785 102.872 56.5263 106.112 45.8125C108.708 37.2278 110.981 28.888 112.277 22.3226C111.188 21.5658 110.142 20.909 109.187 20.3128C109.136 20.2809 109.085 20.2492 109.034 20.2175C107.849 19.4782 106.77 18.8046 105.956 18.1428C105.119 17.463 104.419 16.6861 104.253 15.7126C104.081 14.7022 104.517 13.7171 105.378 12.7141C106.241 11.7094 107.622 10.5756 109.591 9.22529C110.609 8.52698 111.579 8.12989 112.456 8.24252C113.416 8.36583 114.023 9.05524 114.365 9.93153C114.7 10.7885 114.836 11.9311 114.838 13.2562C114.84 14.5949 114.706 16.1808 114.462 17.9594C114.303 19.1178 114.096 20.365 113.847 21.6879C118.443 25.0317 131.689 19.7319 134 29.5L125.999 40.1707ZM113.543 23.2391C112.213 29.7849 64.5124 24.6917 62 33C58.7521 43.7407 100.488 68.0424 97.5649 76.4277C96.103 80.621 94.844 84.1434 93.9504 86.6178C93.6798 87.367 93.4427 88.0201 93.2436 88.5667C103.125 82.332 110.021 76.736 114.88 69.7344C119.998 62.3586 122.902 53.3549 124.556 40.2498C122.426 31.3843 117.817 26.4618 113.543 23.2391ZM89.4121 86.2543L41.5 17.0301L16.7993 -5.12301e-06L12.1785 23.2391L1.71067 83.1778L89.4121 86.2543ZM112.567 20.7905C112.76 19.7243 112.923 18.7129 113.053 17.7638C113.292 16.0225 113.418 14.5076 113.416 13.2587C113.414 11.9964 113.28 11.0647 113.042 10.4551C112.811 9.86474 112.539 9.69513 112.276 9.66131C111.929 9.6168 111.329 9.76445 110.392 10.407C108.451 11.7385 107.193 12.7884 106.454 13.6489C105.714 14.5111 105.586 15.0729 105.654 15.471C105.728 15.9058 106.072 16.3988 106.849 17.0301C107.593 17.6346 108.605 18.2662 109.835 19.034L109.937 19.0975C110.75 19.6056 111.638 20.162 112.567 20.7905Z" fill="#4E4E4E"/>
</svg>
