<svg width="134" height="91" viewBox="0 0 134 91" fill="none" xmlns="http://www.w3.org/2000/svg">
<path d="M16.0005 75.8004H19.0031V69.769H24.7795V67.2239H19.0031V63.7448H25.4036V61.1996H16.0005V75.8004Z" fill="#FFE33F"/>
<path d="M27.4233 75.8004H36.5144V73.2552H30.4259V61.1996H27.4233V75.8004Z" fill="#FFE33F"/>
<path d="M51.0005 68.5C51.0005 63.7234 48.1157 61 44.3503 61C40.5641 61 37.7002 63.7234 37.7002 68.5C37.7002 73.2552 40.5641 76 44.3503 76C48.1157 76 51.0005 73.2766 51.0005 68.5ZM47.9563 68.5C47.9563 71.5941 46.5278 73.2695 44.3503 73.2695C42.166 73.2695 40.7444 71.5941 40.7444 68.5C40.7444 65.4059 42.166 63.7305 44.3503 63.7305C46.5278 63.7305 47.9563 65.4059 47.9563 68.5Z" fill="#FFE33F"/>
<path d="M84.0005 20.8004H87.0031V14.769H92.7795V12.2239H87.0031V8.74477H93.4036V6.19962H84.0005V20.8004Z" fill="#FFE33F"/>
<path d="M95.4233 20.8004H104.514V18.2552H98.4259V6.19962H95.4233V20.8004Z" fill="#FFE33F"/>
<path d="M119 13.5C119 8.72338 116.116 6 112.35 6C108.564 6 105.7 8.72338 105.7 13.5C105.7 18.2552 108.564 21 112.35 21C116.116 21 119 18.2766 119 13.5ZM115.956 13.5C115.956 16.5941 114.528 18.2695 112.35 18.2695C110.166 18.2695 108.744 16.5941 108.744 13.5C108.744 10.4059 110.166 8.73051 112.35 8.73051C114.528 8.73051 115.956 10.4059 115.956 13.5Z" fill="#FFE33F"/>
<path fill-rule="evenodd" clip-rule="evenodd" d="M126 40.1707L125.984 40.2995C124.317 53.596 121.364 62.8898 116.047 70.5531C110.735 78.2077 103.109 84.1673 92.2339 90.8801L92.0396 91.0001L-3.6932e-06 84.4906L16.7998 -5.12301e-06L91.6174 88.8733C91.8584 88.2146 92.1963 87.287 92.6143 86.1294C93.5065 83.6592 94.7637 80.1418 96.2236 75.9544C99.1436 67.5785 102.873 56.5263 106.113 45.8125C108.709 37.2278 110.982 28.888 112.277 22.3226C111.189 21.5658 110.142 20.909 109.187 20.3128C109.136 20.2809 109.085 20.2492 109.035 20.2175C107.85 19.4782 106.771 18.8046 105.956 18.1428C105.119 17.463 104.419 16.6861 104.253 15.7126C104.081 14.7022 104.517 13.7171 105.379 12.7141C106.241 11.7094 107.623 10.5756 109.592 9.22529C110.61 8.52698 111.579 8.12989 112.456 8.24252C113.417 8.36583 114.023 9.05524 114.366 9.93153C114.701 10.7885 114.836 11.9311 114.838 13.2562C114.841 14.5949 114.707 16.1808 114.462 17.9594C114.303 19.1178 114.097 20.365 113.848 21.6879C118.443 25.0317 131.689 19.7319 134 29.5L126 40.1707ZM113.544 23.2391C112.214 29.7849 64.5129 24.6917 62.0005 33C58.7525 43.7407 100.489 68.0424 97.5654 76.4277C96.1035 80.621 94.8445 84.1434 93.9509 86.6178C93.6803 87.367 93.4432 88.0201 93.2441 88.5667C103.125 82.332 110.022 76.736 114.881 69.7344C119.999 62.3586 122.902 53.3549 124.557 40.2498C122.427 31.3843 117.818 26.4618 113.544 23.2391ZM89.4126 86.2543L41.5005 17.0301L16.7998 -5.12301e-06L12.179 23.2391L1.71116 83.1778L89.4126 86.2543ZM112.567 20.7905C112.76 19.7243 112.924 18.7129 113.054 17.7638C113.293 16.0225 113.419 14.5076 113.416 13.2587C113.414 11.9964 113.281 11.0647 113.042 10.4551C112.812 9.86474 112.54 9.69513 112.276 9.66131C111.93 9.6168 111.33 9.76445 110.393 10.407C108.451 11.7385 107.194 12.7884 106.455 13.6489C105.714 14.5111 105.587 15.0729 105.655 15.471C105.729 15.9058 106.072 16.3988 106.85 17.0301C107.594 17.6346 108.605 18.2662 109.835 19.034L109.937 19.0975C110.751 19.6056 111.638 20.162 112.567 20.7905Z" fill="#4E4E4E"/>
</svg>
