<svg width="32" height="31" viewBox="0 0 32 31" fill="none" xmlns="http://www.w3.org/2000/svg">
<path fill-rule="evenodd" clip-rule="evenodd" d="M31.7338 27.5654L23.4541 19.6766C23.1433 19.3808 23.1122 18.9251 23.3526 18.5758C26.7474 13.6513 25.9556 6.87881 20.9472 2.83368C16.128 -1.05754 8.79272 -0.924371 4.1235 3.12941C-1.23601 7.78244 -1.37132 15.7024 3.71939 20.5205C8.06039 24.6297 14.7794 25.1286 19.7138 22.0416C20.0841 21.8098 20.5696 21.8401 20.8822 22.1376L29.1437 30.0099C29.5012 30.3497 30.0808 30.3506 30.4392 30.0116L31.732 28.7881C32.0886 28.4508 32.0895 27.9043 31.7338 27.5654ZM6.76153 17.8154C3.43279 14.6672 3.43279 9.54474 6.76153 6.39652C10.0903 3.24831 15.5064 3.2475 18.8351 6.39652C22.1638 9.54474 22.1638 14.6672 18.8351 17.8154C15.5064 20.9636 10.0903 20.9636 6.76153 17.8154Z" fill="#606060"/>
</svg>
