<svg width="6" height="7" viewBox="0 0 6 7" fill="none" xmlns="http://www.w3.org/2000/svg">
<path d="M5.30163 1.10669C5.20492 0.902281 4.99908 0.771881 4.77297 0.771881H0.620928C0.297959 0.771881 0.0361328 1.03371 0.0361328 1.35667V1.94153C0.0361328 2.26449 0.297959 2.52632 0.620928 2.52632C0.943896 2.52632 1.20572 2.26449 1.20572 1.94153L3.53644 1.94147L0.168936 6.04419C0.0254688 6.21898 -0.00438477 6.46082 0.0922949 6.66522C0.188975 6.86966 0.394844 7 0.620928 7H4.68525C5.00822 7 5.27005 6.73817 5.27005 6.41521V5.83041C5.27005 5.50744 5.00822 5.24562 4.68525 5.24562C4.36229 5.24562 4.10046 5.50744 4.10046 5.83041H1.85749L5.22502 1.72772C5.36849 1.5529 5.39834 1.31106 5.30163 1.10669Z" fill="black"/>
</svg>
