<svg width="9" height="4" viewBox="0 0 9 4" fill="none" xmlns="http://www.w3.org/2000/svg">
<path d="M7.83853 0.445845C7.61154 0.21604 7.24132 0.213755 7.01151 0.440718L4.7976 2.62738C4.79675 2.62823 4.79587 2.62908 4.79502 2.62992C4.56701 2.85794 4.19599 2.85791 3.96821 2.6301L1.78354 0.443442C1.55528 0.214927 1.18497 0.214751 0.956513 0.443061C0.728026 0.671313 0.72785 1.0416 0.956132 1.27008L3.14098 3.45695C3.48302 3.79893 3.93229 3.96996 4.38153 3.96996C4.83018 3.96996 5.27878 3.79945 5.62058 3.45841L7.83338 1.27287C8.06321 1.04587 8.06547 0.67562 7.83853 0.445845Z" fill="black"/>
</svg>
