<svg width="6" height="7" viewBox="0 0 6 7" fill="none" xmlns="http://www.w3.org/2000/svg">
<path d="M2.69794 0C1.23075 0 0.0371094 1.19361 0.0371094 2.66083V5.64328C0.0371094 5.96625 0.298936 6.22808 0.621904 6.22808C0.944873 6.22808 1.2067 5.96625 1.2067 5.64328V4.44445H4.18915V5.64328C4.18915 5.96625 4.45098 6.22808 4.77395 6.22808C5.09691 6.22808 5.35874 5.96625 5.35874 5.64328V2.66083C5.35877 1.19361 4.16513 0 2.69794 0ZM4.18918 3.27486H1.2067V2.66083C1.2067 1.83855 1.87566 1.16959 2.69794 1.16959C3.52019 1.16959 4.18918 1.83853 4.18918 2.66083V3.27486Z" fill="black"/>
</svg>
